<svg width="18" height="18" viewBox="0 0 18 18" fill="none" xmlns="http://www.w3.org/2000/svg">
<path d="M16.4445 0.666504H1.55556C1.00001 0.666504 0.666672 1.11095 0.666672 1.55539V16.3332C0.666672 16.8887 1.11112 17.2221 1.55556 17.2221H9.55556V10.7776H7.33334V8.33317H9.55556V6.55539C9.55556 4.44428 10.8889 3.22206 12.7778 3.22206C13.6667 3.22206 14.4445 3.33317 14.6667 3.33317V5.55539H13.3333C12.3333 5.55539 12.1111 5.99984 12.1111 6.77761V8.33317H14.5556L14.2222 10.8887H12.1111V17.3332H16.3333C16.8889 17.3332 17.2222 16.8887 17.2222 16.4443V1.55539C17.3333 1.11095 16.8889 0.666504 16.4445 0.666504Z" fill="black"/>
</svg>
