<svg width="16" height="18" viewBox="0 0 16 18" fill="none" xmlns="http://www.w3.org/2000/svg">
<path d="M13.1 4.00817C12.647 3.71251 12.2584 3.32829 11.9577 2.87862C11.6569 2.42895 11.4502 1.9231 11.35 1.3915C11.3083 1.15817 11.2833 0.916504 11.2833 0.666504H8.41667V12.1498C8.39173 12.7721 8.12717 13.3607 7.67834 13.7924C7.2295 14.2242 6.63113 14.4657 6.00834 14.4665C5.69207 14.4665 5.3789 14.4042 5.08671 14.2832C4.79452 14.1621 4.52902 13.9848 4.30539 13.7611C3.85374 13.3095 3.6 12.6969 3.6 12.0582C3.6 10.7332 4.68334 9.64984 6.00834 9.64984C6.25834 9.64984 6.49167 9.6915 6.71667 9.75817V6.83317C6.48334 6.79984 6.25 6.78317 6.00834 6.78317C3.1 6.78317 0.733337 9.14984 0.733337 12.0582C0.733337 13.8415 1.625 15.4248 2.98334 16.3748C3.84167 16.9748 4.88334 17.3332 6.00834 17.3332C8.91667 17.3332 11.2833 14.9665 11.2833 12.0582V6.23317C12.4083 7.0415 13.7833 7.5165 15.2667 7.5165V4.64984C14.4667 4.64984 13.725 4.40817 13.1 4.00817Z" fill="black"/>
</svg>
