<svg width="20" height="15" viewBox="0 0 20 15" fill="none" xmlns="http://www.w3.org/2000/svg">
<path d="M19.7833 3.50419C19.7833 3.50419 19.5917 2.12919 18.9917 1.52919C18.2333 0.72919 17.3833 0.72919 16.9917 0.67919C14.2 0.475023 10 0.500023 10 0.500023C10 0.500023 5.81667 0.475023 3.025 0.675023C2.64167 0.725023 1.79167 0.725023 1.03333 1.52502C0.433333 2.12502 0.233333 3.50002 0.233333 3.50002C0.233333 3.50002 0.0333333 5.12086 0 6.73336V8.42086C0.0333333 10.0375 0.233333 11.65 0.233333 11.65C0.233333 11.65 0.433333 13.025 1.03333 13.6334C1.79167 14.425 2.78333 14.4 3.23333 14.4834C4.8 14.6334 9.825 14.6667 10 14.6667C10 14.6667 14.2083 14.675 17 14.475C17.3833 14.425 18.2333 14.425 18.9917 13.625C19.5917 13.025 19.7917 11.65 19.7917 11.65C19.7917 11.65 19.9917 10.0334 20 8.42086V6.73336C19.9833 5.12086 19.7833 3.50419 19.7833 3.50419ZM7.975 10.5V4.65836L13.3333 7.69169L7.975 10.5Z" fill="black"/>
</svg>
